STARTFONT 2.1
FONT -SevenSeg-Regular-R-Normal--12-90-100-100-P-68-ISO10646-1
SIZE 11 100 100
FONTBOUNDINGBOX 18 14 0 -1
COMMENT "CedarGroveMakerStudios-2022-02-08"

STARTPROPERTIES 19
FOUNDRY "CedarGroveStudios"
COPYRIGHT "2022 CedarGroveStudios"
FAMILY_NAME "SevenSeg"
WEIGHT_NAME "Regular"
SLANT "R"
SETWIDTH_NAME "Normal"
PIXEL_SIZE 11
POINT_SIZE 110
RESOLUTION_X 100
RESOLUTION_Y 100
SPACING "C"
AVERAGE_WIDTH 100
CHARSET_REGISTRY "ISO10646"
CHARSET_ENCODING "1"
FONT_ASCENT 0
FONT_DESCENT 0
ENDPROPERTIES

CHARS 29

STARTCHAR space
ENCODING 32
SWIDTH 640 0
DWIDTH 13 0
BBX 0 0 0 0
BITMAP
ENDCHAR

STARTCHAR plus
ENCODING 43
SWIDTH 640 0
DWIDTH 13 0
BBX 9 13 0 0
BITMAP
0000
0000
0000
0000
0800
0800
3E00
0000
0800
0800
0000
0000
0000
ENDCHAR

STARTCHAR hyphen
ENCODING 45
SWIDTH 640 0
DWIDTH 13 0
BBX 9 13 0 0
BITMAP
0000
0000
0000
0000
0000
0000
3E00
0000
0000
0000
0000
0000
0000
ENDCHAR

STARTCHAR period
ENCODING 46
SWIDTH 640 0
DWIDTH 13 0
BBX 9 13 0 0
BITMAP
0000
0000
0000
0000
0000
0000
0000
0000
0000
1800
1800
0000
0000
ENDCHAR

STARTCHAR zero
ENCODING 48
SWIDTH 640 0
DWIDTH 13 0
BBX 9 13 0 0
BITMAP
1F00
2080
2080
2080
4100
4100
0000
4100
4100
4100
8200
8200
7C00
ENDCHAR

STARTCHAR one
ENCODING 49
SWIDTH 640 0
DWIDTH 13 0
BBX 9 13 0 0
BITMAP
0000
0080
0080
0080
0100
0100
0000
0100
0100
0100
0200
0200
0000
ENDCHAR

STARTCHAR two
ENCODING 50
SWIDTH 640 0
DWIDTH 13 0
BBX 9 13 0 0
BITMAP
1F00
0080
0080
0080
0100
0100
3E00
4000
4000
4000
8000
8000
7C00
ENDCHAR

STARTCHAR three
ENCODING 51
SWIDTH 640 0
DWIDTH 13 0
BBX 9 13 0 0
BITMAP
1F00
0080
0080
0080
0100
0100
3E00
0100
0100
0100
0200
0200
7C00
ENDCHAR

STARTCHAR four
ENCODING 52
SWIDTH 640 0
DWIDTH 13 0
BBX 9 13 0 0
BITMAP
0000
2080
2080
2080
4100
4100
3E00
0100
0100
0100
0200
0200
0000
ENDCHAR

STARTCHAR five
ENCODING 53
SWIDTH 640 0
DWIDTH 13 0
BBX 9 13 0 0
BITMAP
1F00
2000
2000
2000
4000
4000
3E00
0100
0100
0100
0200
0200
7C00
ENDCHAR

STARTCHAR six
ENCODING 54
SWIDTH 640 0
DWIDTH 13 0
BBX 9 13 0 0
BITMAP
1F00
2000
2000
2000
4000
4000
3E00
4100
4100
4100
8200
8200
7C00
ENDCHAR

STARTCHAR seven
ENCODING 55
SWIDTH 640 0
DWIDTH 13 0
BBX 9 13 0 0
BITMAP
1F00
0080
0080
0080
0100
0100
0000
0100
0100
0100
0200
0200
0000
ENDCHAR

STARTCHAR eight
ENCODING 56
SWIDTH 640 0
DWIDTH 13 0
BBX 9 13 0 0
BITMAP
11F00
2080
2080
2080
4100
4100
3E00
4100
4100
4100
8200
8200
7C00
ENDCHAR

STARTCHAR nine
ENCODING 57
SWIDTH 640 0
DWIDTH 13 0
BBX 9 13 0 0
BITMAP
11F00
2080
2080
2080
4100
4100
3E00
0100
0100
0100
0200
0200
7C00
ENDCHAR

STARTCHAR colon
ENCODING 58
SWIDTH 640 0
DWIDTH 13 0
BBX 9 13 0 0
BITMAP
0000
0000
1800
1800
0000
0000
0000
0000
1800
1800
0000
0000
0000
ENDCHAR

STARTCHAR A
ENCODING 65
SWIDTH 640 0
DWIDTH 13 0
BBX 9 13 0 0
BITMAP
1F00
2080
2080
2080
4100
4100
3E00
4100
4100
4100
8200
8200
0000
ENDCHAR

STARTCHAR B
ENCODING 66
SWIDTH 640 0
DWIDTH 13 0
BBX 9 13 0 0
BITMAP
0000
2000
2000
2000
4000
4000
3E00
4100
4100
4100
8200
8200
7C00
ENDCHAR

STARTCHAR C
ENCODING 67
SWIDTH 640 0
DWIDTH 13 0
BBX 9 13 0 0
BITMAP
1F00
2000
2000
2000
4000
4000
0000
4000
4000
4000
8000
8000
7C00
ENDCHAR

STARTCHAR D
ENCODING 68
SWIDTH 640 0
DWIDTH 13 0
BBX 9 13 0 0
BITMAP
0000
0080
0080
0080
0100
0100
3E00
4100
4100
4100
8200
8200
7C00
ENDCHAR

STARTCHAR E
ENCODING 69
SWIDTH 640 0
DWIDTH 13 0
BBX 9 13 0 0
BITMAP
1F00
2000
2000
2000
4000
4000
3E00
4000
4000
4000
8000
8000
7C00
ENDCHAR

STARTCHAR F
ENCODING 70
SWIDTH 640 0
DWIDTH 13 0
BBX 9 13 0 0
BITMAP
1F00
2000
2000
2000
4000
4000
3E00
4000
4000
4000
8000
8000
0000
ENDCHAR

STARTCHAR underscore
ENCODING 95
SWIDTH 640 0
DWIDTH 13 0
BBX 9 13 0 0
BITMAP
0000
0000
0000
0000
0000
0000
0000
0000
0000
0000
0000
0000
7F00
ENDCHAR

STARTCHAR a
ENCODING 97
SWIDTH 640 0
DWIDTH 13 0
BBX 9 13 0 0
BITMAP
1F00
2080
2080
2080
4100
4100
3E00
4100
4100
4100
8200
8200
0000
ENDCHAR

STARTCHAR b
ENCODING 98
SWIDTH 640 0
DWIDTH 13 0
BBX 9 13 0 0
BITMAP
0000
2000
2000
2000
4000
4000
3E00
4100
4100
4100
8200
8200
7C00
ENDCHAR

STARTCHAR c
ENCODING 99
SWIDTH 640 0
DWIDTH 13 0
BBX 9 13 0 0
BITMAP
1F00
2000
2000
2000
4000
4000
0000
4000
4000
4000
8000
8000
7C00
ENDCHAR

STARTCHAR d
ENCODING 100
SWIDTH 640 0
DWIDTH 13 0
BBX 9 13 0 0
BITMAP
0000
0080
0080
0080
0100
0100
3E00
4100
4100
4100
8200
8200
7C00
ENDCHAR

STARTCHAR e
ENCODING 101
SWIDTH 640 0
DWIDTH 13 0
BBX 9 13 0 0
BITMAP
1F00
2000
2000
2000
4000
4000
3E00
4000
4000
4000
8000
8000
7C00
ENDCHAR

STARTCHAR f
ENCODING 102
SWIDTH 640 0
DWIDTH 13 0
BBX 9 13 0 0
BITMAP
1F00
2000
2000
2000
4000
4000
3E00
4000
4000
4000
8000
8000
0000
ENDCHAR

STARTCHAR °
ENCODING 186
SWIDTH 640 0
DWIDTH 13 0
BBX 9 13 0 0
BITMAP
1F00
2080
2080
2080
4100
4100
3E00
0000
0000
0000
0000
0000
0000
ENDCHAR

ENDFONT
