STARTFONT 2.1
FONT -SevenSeg-Regular-R-Normal--12-90-100-100-P-68-ISO10646-1
SIZE 6 100 100
FONTBOUNDINGBOX 8 8 0 -1
COMMENT "CedarGroveMakerStudios-2022-02-08"

STARTPROPERTIES 19
FOUNDRY "CedarGroveStudios"
COPYRIGHT "2022 CedarGroveStudios"
FAMILY_NAME "SevenSeg"
WEIGHT_NAME "Regular"
SLANT "R"
SETWIDTH_NAME "Normal"
PIXEL_SIZE 6
POINT_SIZE 60
RESOLUTION_X 100
RESOLUTION_Y 100
SPACING "C"
AVERAGE_WIDTH 68
CHARSET_REGISTRY "ISO10646"
CHARSET_ENCODING "1"
FONT_ASCENT 0
FONT_DESCENT 0
ENDPROPERTIES

CHARS 28

STARTCHAR space
ENCODING 32
SWIDTH 640 0
DWIDTH 5 0
BBX 0 0 0 0
BITMAP
ENDCHAR

STARTCHAR plus
ENCODING 43
SWIDTH 640 0
DWIDTH 5 0
BBX 4 7 0 0
BITMAP
0
00
20
70
20
00
00
ENDCHAR

STARTCHAR hyphen
ENCODING 45
SWIDTH 640 0
DWIDTH 5 0
BBX 4 7 0 0
BITMAP
00
00
00
70
00
00
00
ENDCHAR

STARTCHAR period
ENCODING 46
SWIDTH 640 0
DWIDTH 5 0
BBX 4 7 0 0
BITMAP
00
00
00
00
00
40
00
ENDCHAR

STARTCHAR zero
ENCODING 48
SWIDTH 640 0
DWIDTH 5 0
BBX 4 7 0 0
BITMAP
60
90
90
00
90
90
60
ENDCHAR

STARTCHAR one
ENCODING 49
SWIDTH 640 0
DWIDTH 5 0
BBX 4 7 0 0
BITMAP
00
10
10
00
10
10
00
ENDCHAR

STARTCHAR two
ENCODING 50
SWIDTH 640 0
DWIDTH 5 0
BBX 4 7 0 0
BITMAP
60
10
10
60
80
80
60
ENDCHAR

STARTCHAR three
ENCODING 51
SWIDTH 640 0
DWIDTH 5 0
BBX 4 7 0 0
BITMAP
660
10
10
60
10
10
60
ENDCHAR

STARTCHAR four
ENCODING 52
SWIDTH 640 0
DWIDTH 5 0
BBX 4 7 0 0
BITMAP
00
90
90
60
10
10
00
ENDCHAR

STARTCHAR five
ENCODING 53
SWIDTH 640 0
DWIDTH 5 0
BBX 4 7 0 0
BITMAP
60
80
80
60
10
10
60
ENDCHAR

STARTCHAR six
ENCODING 54
SWIDTH 640 0
DWIDTH 5 0
BBX 4 7 0 0
BITMAP
60
80
80
60
90
90
60
ENDCHAR

STARTCHAR seven
ENCODING 55
SWIDTH 640 0
DWIDTH 5 0
BBX 4 7 0 0
BITMAP
60
10
10
00
10
10
00
ENDCHAR

STARTCHAR eight
ENCODING 56
SWIDTH 640 0
DWIDTH 5 0
BBX 4 7 0 0
BITMAP
60
90
90
60
90
90
60
ENDCHAR

STARTCHAR nine
ENCODING 57
SWIDTH 640 0
DWIDTH 5 0
BBX 4 7 0 0
BITMAP
60
90
90
60
10
10
60
ENDCHAR

STARTCHAR colon
ENCODING 58
SWIDTH 640 0
DWIDTH 5 0
BBX 4 7 0 0
BITMAP
00
40
00
00
40
00
00
ENDCHAR

STARTCHAR A
ENCODING 65
SWIDTH 640 0
DWIDTH 5 0
BBX 4 7 0 0
BITMAP
60
90
90
60
90
90
00
ENDCHAR

STARTCHAR B
ENCODING 66
SWIDTH 640 0
DWIDTH 5 0
BBX 4 7 0 0
BITMAP
00
80
80
60
90
90
60
ENDCHAR

STARTCHAR C
ENCODING 67
SWIDTH 640 0
DWIDTH 5 0
BBX 4 7 0 0
BITMAP
60
80
80
00
80
80
60
ENDCHAR

STARTCHAR D
ENCODING 68
SWIDTH 640 0
DWIDTH 5 0
BBX 4 7 0 0
BITMAP
00
10
10
60
90
90
60
ENDCHAR

STARTCHAR E
ENCODING 69
SWIDTH 640 0
DWIDTH 5 0
BBX 4 7 0 0
BITMAP
60
80
80
60
80
80
60
ENDCHAR

STARTCHAR F
ENCODING 70
SWIDTH 640 0
DWIDTH 5 0
BBX 4 7 0 0
BITMAP
60
80
80
60
80
80
00
ENDCHAR

STARTCHAR underscore
ENCODING 95
SWIDTH 640 0
DWIDTH 5 0
BBX 4 7 0 0
BITMAP
00
00
00
00
00
00
F0
ENDCHAR

STARTCHAR a
ENCODING 97
SWIDTH 640 0
DWIDTH 5 0
BBX 4 7 0 0
BITMAP
60
90
90
60
90
90
00
ENDCHAR

STARTCHAR b
ENCODING 98
SWIDTH 640 0
DWIDTH 5 0
BBX 4 7 0 0
BITMAP
00
80
80
60
90
90
60
ENDCHAR

STARTCHAR c
ENCODING 99
SWIDTH 640 0
DWIDTH 5 0
BBX 4 7 0 0
BITMAP
60
80
80
00
80
80
60
ENDCHAR

STARTCHAR d
ENCODING 100
SWIDTH 640 0
DWIDTH 5 0
BBX 4 7 0 0
BITMAP
00
10
10
60
90
90
60
ENDCHAR

STARTCHAR e
ENCODING 101
SWIDTH 640 0
DWIDTH 5 0
BBX 4 7 0 0
BITMAP
60
80
80
60
80
80
60
ENDCHAR

STARTCHAR f
ENCODING 102
SWIDTH 640 0
DWIDTH 5 0
BBX 4 7 0 0
BITMAP
60
80
80
60
80
80
00
ENDCHAR

ENDFONT
