STARTFONT 2.1
FONT -SevenSeg-Regular-R-Normal--12-90-100-100-P-68-ISO10646-1
SIZE 9 100 100
FONTBOUNDINGBOX 8 12 0 -1
COMMENT "CedarGroveMakerStudios-2022-02-08"

STARTPROPERTIES 19
FOUNDRY "CedarGroveStudios"
COPYRIGHT "2022 CedarGroveStudios"
FAMILY_NAME "SevenSeg"
WEIGHT_NAME "Regular"
SLANT "R"
SETWIDTH_NAME "Normal"
PIXEL_SIZE 9
POINT_SIZE 90
RESOLUTION_X 100
RESOLUTION_Y 100
SPACING "C"
AVERAGE_WIDTH 68
CHARSET_REGISTRY "ISO10646"
CHARSET_ENCODING "1"
FONT_ASCENT 12
FONT_DESCENT 0
ENDPROPERTIES

CHARS 29

STARTCHAR space
ENCODING 32
SWIDTH 640 0
DWIDTH 10 0
BBX 0 0 0 0
BITMAP
ENDCHAR

STARTCHAR plus
ENCODING 43
SWIDTH 640 0
DWIDTH 10 0
BBX 8 11 0 0
BITMAP
00
00
00
08
08
7E
10
10
00
00
00
ENDCHAR

STARTCHAR hyphen
ENCODING 45
SWIDTH 640 0
DWIDTH 10 0
BBX 8 11 0 0
BITMAP
00
00
00
00
00
7E
00
00
00
00
00
ENDCHAR

STARTCHAR period
ENCODING 46
SWIDTH 640 0
DWIDTH 10 0
BBX 8 11 0 0
BITMAP
00
00
00
00
00
00
00
00
18
18
00
ENDCHAR

STARTCHAR zero
ENCODING 48
SWIDTH 640 0
DWIDTH 10 0
BBX 8 11 0 0
BITMAP
1E
21
21
42
42
00
42
42
84
84
78
ENDCHAR

STARTCHAR one
ENCODING 49
SWIDTH 640 0
DWIDTH 10 0
BBX 8 11 0 0
BITMAP
00
01
01
02
02
00
02
02
04
04
00
ENDCHAR

STARTCHAR two
ENCODING 50
SWIDTH 640 0
DWIDTH 10 0
BBX 8 11 0 0
BITMAP
1E
01
01
02
02
3C
40
40
80
80
78
ENDCHAR

STARTCHAR three
ENCODING 51
SWIDTH 640 0
DWIDTH 10 0
BBX 8 11 0 0
BITMAP
1E
01
01
02
02
3C
02
02
04
04
78
ENDCHAR

STARTCHAR four
ENCODING 52
SWIDTH 640 0
DWIDTH 10 0
BBX 8 11 0 0
BITMAP
00
21
21
42
42
3C
02
02
04
04
00
ENDCHAR

STARTCHAR five
ENCODING 53
SWIDTH 640 0
DWIDTH 10 0
BBX 8 11 0 0
BITMAP
1E
20
20
40
40
3C
02
02
04
04
78
ENDCHAR

STARTCHAR six
ENCODING 54
SWIDTH 640 0
DWIDTH 10 0
BBX 8 11 0 0
BITMAP
1E
20
20
40
40
3C
42
42
84
84
78
ENDCHAR

STARTCHAR seven
ENCODING 55
SWIDTH 640 0
DWIDTH 10 0
BBX 8 11 0 0
BITMAP
1E
01
01
02
02
00
02
02
04
04
00
ENDCHAR

STARTCHAR eight
ENCODING 56
SWIDTH 640 0
DWIDTH 10 0
BBX 8 11 0 0
BITMAP
1E
21
21
42
42
3C
42
42
84
84
78
ENDCHAR

STARTCHAR nine
ENCODING 57
SWIDTH 640 0
DWIDTH 10 0
BBX 8 11 0 0
BITMAP
1E
21
21
42
42
3C
02
02
04
04
78
ENDCHAR

STARTCHAR colon
ENCODING 58
SWIDTH 640 0
DWIDTH 10 0
BBX 8 11 0 0
BITMAP
00
00
18
18
00
00
00
18
18
00
00
ENDCHAR

STARTCHAR A
ENCODING 65
SWIDTH 640 0
DWIDTH 10 0
BBX 8 11 0 0
BITMAP
1E
21
21
42
42
3C
42
42
84
84
00
ENDCHAR

STARTCHAR B
ENCODING 66
SWIDTH 640 0
DWIDTH 10 0
BBX 8 11 0 0
BITMAP
00
20
20
40
40
3C
42
42
84
84
78
ENDCHAR

STARTCHAR C
ENCODING 67
SWIDTH 640 0
DWIDTH 10 0
BBX 8 11 0 0
BITMAP
1E
20
20
40
40
00
40
40
80
80
78
ENDCHAR

STARTCHAR D
ENCODING 68
SWIDTH 640 0
DWIDTH 10 0
BBX 8 11 0 0
BITMAP
00
01
01
02
02
3C
42
42
84
84
78
ENDCHAR

STARTCHAR E
ENCODING 69
SWIDTH 640 0
DWIDTH 10 0
BBX 8 11 0 0
BITMAP
1E
20
20
40
40
3C
40
40
80
80
78
ENDCHAR

STARTCHAR F
ENCODING 70
SWIDTH 640 0
DWIDTH 10 0
BBX 8 11 0 0
BITMAP
1E
20
20
40
40
3C
40
40
80
80
00
ENDCHAR

STARTCHAR underscore
ENCODING 95
SWIDTH 640 0
DWIDTH 10 0
BBX 8 11 0 0
BITMAP
00
00
00
00
00
00
00
00
00
00
7E
ENDCHAR

STARTCHAR a
ENCODING 97
SWIDTH 640 0
DWIDTH 10 0
BBX 8 11 0 0
BITMAP
1E
21
21
42
42
3C
42
42
84
84
00
ENDCHAR

STARTCHAR b
ENCODING 98
SWIDTH 640 0
DWIDTH 10 0
BBX 8 11 0 0
BITMAP
00
20
20
40
40
3C
42
42
84
84
78
ENDCHAR

STARTCHAR c
ENCODING 99
SWIDTH 640 0
DWIDTH 10 0
BBX 8 11 0 0
BITMAP
1E
20
20
40
40
00
40
40
80
80
78
ENDCHAR

STARTCHAR d
ENCODING 100
SWIDTH 640 0
DWIDTH 10 0
BBX 8 11 0 0
BITMAP
00
01
01
02
02
3C
42
42
84
84
78
ENDCHAR

STARTCHAR e
ENCODING 101
SWIDTH 640 0
DWIDTH 10 0
BBX 8 11 0 0
BITMAP
1E
20
20
40
40
3C
40
40
80
80
78
ENDCHAR

STARTCHAR f
ENCODING 102
SWIDTH 640 0
DWIDTH 10 0
BBX 8 11 0 0
BITMAP
1E
20
20
40
40
3C
40
40
80
80
00
ENDCHAR

STARTCHAR °
ENCODING 176
SWIDTH 640 0
DWIDTH 10 0
BBX 8 11 0 0
BITMAP
1E
21
21
42
42
3C
00
00
00
00
00
ENDCHAR

ENDFONT
